grf
version=1
nRows=15
nColumns=37
inDegrees=no
endheader
time	ground_force_1_vx	ground_force_1_vy	ground_force_1_vz	ground_force_1_px	ground_force_1_py	ground_force_1_pz	ground_moment_1_mx	ground_moment_1_my	ground_moment_1_mz	ground_force_2_vx	ground_force_2_vy	ground_force_2_vz	ground_force_2_px	ground_force_2_py	ground_force_2_pz	ground_moment_2_mx	ground_moment_2_my	ground_moment_2_mz	ground_force_3_vx	ground_force_3_vy	ground_force_3_vz	ground_force_3_px	ground_force_3_py	ground_force_3_pz	ground_moment_3_mx	ground_moment_3_my	ground_moment_3_mz	ground_force_4_vx	ground_force_4_vy	ground_force_4_vz	ground_force_4_px	ground_force_4_py	ground_force_4_pz	ground_moment_4_mx	ground_moment_4_my	ground_moment_4_mz
      0.00000000	      0.00000000	     -0.00000000	      0.00000000	      0.00000000	      0.00000000	      0.00000000	      0.00000000	      0.00000000	      0.00000000	     10.12558365	    -13.42540932	   -736.20281982	   -297.79238244	  -1016.46241200	      0.00000000	      0.00000000	     -0.00000000	  -1329.95152704	     -9.81406148	     -3.61029086	    -30.19935417	   -159.52370882	   -890.66981216	      0.00000000	      0.00000000	      0.00000000	      3.42529398	    -35.25746011	     16.44184993	     76.46350098	    601.82520248	   -564.06347215	      0.00000000	      0.00000000	     -0.00000000	    -96.00948585
      0.01000000	      0.00000000	     -0.00000000	      0.00000000	      0.00000000	      0.00000000	      0.00000000	      0.00000000	      0.00000000	      0.00000000	     10.04729080	    -14.37230587	   -738.45507812	   -297.53370106	  -1016.54063197	      0.00000000	      0.00000000	      0.00000000	  -1150.81884644	     -9.59177239	     -3.54382526	    -31.81611824	   -168.09002030	   -893.91437372	      0.00000000	      0.00000000	     -0.00000000	    -32.25737400	    -34.86620953	     16.10548133	     76.02723694	    602.65804098	   -560.19010530	      0.00000000	     -0.00000000	     -0.00000000	   -270.33131302
      0.02000000	      0.00000000	     -0.00000000	      0.00000000	      0.00000000	      0.00000000	      0.00000000	      0.00000000	      0.00000000	      0.00000000	      9.89112568	    -14.65036201	   -739.73687744	   -296.85291624	  -1016.22995196	      0.00000000	      0.00000000	     -0.00000000	  -1109.14830076	     -9.62514812	     -3.46661150	    -31.11811066	   -166.59692217	   -888.06632130	      0.00000000	      0.00000000	      0.00000000	     32.47627975	    -34.79934551	     16.14879149	     75.58854675	    606.56668616	   -559.76001002	      0.00000000	      0.00000000	     -0.00000000	   -243.52624651
      0.03000000	      0.00000000	     -0.00000000	      0.00000000	      0.00000000	      0.00000000	      0.00000000	      0.00000000	      0.00000000	      0.00000000	      9.76916695	    -13.50387192	   -739.87213135	   -296.90245548	  -1015.35680389	      0.00000000	      0.00000000	     -0.00000000	  -1246.94623056	     -9.39219791	     -3.46673907	    -31.33590698	   -165.25087331	   -889.76184619	      0.00000000	      0.00000000	     -0.00000000	   -104.46274949	    -35.23317198	     15.89216636	     76.67906189	    601.92788369	   -565.42123000	      0.00000000	      0.00000000	      0.00000000	    146.44713166
      0.04000000	      0.00000000	     -0.00000000	      0.00000000	      0.00000000	      0.00000000	      0.00000000	      0.00000000	      0.00000000	      0.00000000	      9.83591747	    -12.29999542	   -742.46710205	   -296.66732196	  -1015.60660437	      0.00000000	     -0.00000000	     -0.00000000	  -1285.91002592	     -9.25958472	     -3.40091004	    -30.42035484	   -164.05600324	   -901.22768264	      0.00000000	      0.00000000	      0.00000000	     20.13047236	    -34.95524074	     16.23819657	     75.59019470	    605.19388322	   -565.45227043	      0.00000000	      0.00000000	     -0.00000000	    -68.68085106
      0.05000000	      0.00000000	     -0.00000000	      0.00000000	      0.00000000	      0.00000000	      0.00000000	      0.00000000	      0.00000000	      0.00000000	     10.08078766	    -11.05216980	   -743.62493896	   -296.32516760	  -1015.48383530	      0.00000000	     -0.00000000	     -0.00000000	  -1237.30834554	     -9.14849221	     -3.99540535	    -30.55379677	   -166.58584822	   -891.45301772	      0.00000000	     -0.00000000	     -0.00000000	     44.41578481	    -34.85408258	     16.39461441	     75.10375977	    603.83806859	   -567.07975632	      0.00000000	      0.00000000	     -0.00000000	    -51.70480164
      0.06000000	      0.00000000	     -0.00000000	      0.00000000	      0.00000000	      0.00000000	      0.00000000	      0.00000000	      0.00000000	      0.00000000	      9.47932243	     -9.85899353	   -744.19567871	   -295.59381745	  -1015.70512106	      0.00000000	      0.00000000	     -0.00000000	  -1259.72587499	     -8.62763345	     -4.08335563	    -29.84845352	   -160.26929742	   -910.03732483	      0.00000000	      0.00000000	     -0.00000000	    -79.98676875	    -34.66334009	     16.35107343	     76.06532288	    605.54026888	   -565.78407917	      0.00000000	      0.00000000	     -0.00000000	   -122.05484830
      0.07000000	      0.00000000	     -0.00000000	      0.00000000	      0.00000000	      0.00000000	      0.00000000	      0.00000000	      0.00000000	      0.00000000	      8.86657906	     -8.26941109	   -741.27886963	   -294.72361731	  -1015.16735884	      0.00000000	      0.00000000	     -0.00000000	  -1527.68710777	     -8.76216824	     -3.56697173	    -30.51101303	   -159.03949176	   -906.39300987	      0.00000000	      0.00000000	     -0.00000000	    -51.57758552	    -34.91970682	     16.42911263	     76.11067200	    601.97770987	   -564.47396566	      0.00000000	      0.00000000	     -0.00000000	    -30.23871016
      0.08000000	      0.00000000	     -0.00000000	      0.00000000	      0.00000000	      0.00000000	      0.00000000	      0.00000000	      0.00000000	      0.00000000	      8.16469574	     -6.53363371	   -739.69702148	   -293.64495070	  -1015.25115329	      0.00000000	      0.00000000	     -0.00000000	  -1599.36850347	     -9.18002735	     -3.96305171	    -32.03163147	   -164.85818766	   -891.35704215	      0.00000000	      0.00000000	     -0.00000000	    -44.04535219	    -34.65105295	     16.41711157	     75.66718292	    606.62663202	   -562.13019814	      0.00000000	      0.00000000	     -0.00000000	   -236.31299399
      0.09000000	      0.00000000	     -0.00000000	      0.00000000	      0.00000000	      0.00000000	      0.00000000	      0.00000000	      0.00000000	      0.00000000	      6.93502426	     -6.75785637	   -737.72930908	   -292.74252337	  -1015.55044458	      0.00000000	     -0.00000000	     -0.00000000	  -1683.96382913	     -9.20284975	     -4.16260400	    -31.90900803	   -157.56126284	   -905.53485788	      0.00000000	      0.00000000	      0.00000000	    183.46352488	    -34.74537137	     16.00270194	     77.02384186	    600.75097319	   -563.58823165	      0.00000000	      0.00000000	      0.00000000	    108.05154883
      0.10000000	      0.00000000	     -0.00000000	      0.00000000	      0.00000000	      0.00000000	      0.00000000	      0.00000000	      0.00000000	      0.00000000	      6.33394623	     -6.97569609	   -734.82757568	   -291.87325829	  -1015.03374915	      0.00000000	      0.00000000	     -0.00000000	  -1711.72464649	     -8.79397905	     -4.06279678	    -33.68490982	   -164.53383073	   -890.24942316	      0.00000000	      0.00000000	     -0.00000000	   -191.06182066	    -34.82315683	     16.36250419	     76.50756836	    601.35156890	   -562.96993097	      0.00000000	      0.00000000	     -0.00000000	   -258.39208609
      0.11000000	      0.00000000	     -0.00000000	      0.00000000	      0.00000000	      0.00000000	      0.00000000	      0.00000000	      0.00000000	      0.00000000	      5.91704416	     -7.33234406	   -730.28240967	   -291.33968517	  -1013.42216301	      0.00000000	      0.00000000	     -0.00000000	  -1818.02441512	     -8.88275281	     -4.42770594	    -33.77581406	   -162.49894404	   -899.43530745	      0.00000000	      0.00000000	     -0.00000000	   -115.18030449	    -34.94235853	     15.93666478	     74.94062042	    606.23272933	   -561.66113986	      0.00000000	      0.00000000	     -0.00000000	    -52.61264714
      0.12000000	      0.00000000	     -0.00000000	      0.00000000	      0.00000000	      0.00000000	      0.00000000	      0.00000000	      0.00000000	      0.00000000	      5.95328140	     -8.63374805	   -730.82354736	   -290.77902753	  -1014.38478144	      0.00000000	      0.00000000	     -0.00000000	  -1683.49022095	     -9.00678387	     -4.43947761	    -34.94062805	   -159.60627527	   -899.35831530	      0.00000000	      0.00000000	     -0.00000000	   -160.43781464	    -34.87160732	     16.18242378	     76.27132416	    602.96763358	   -562.42939336	      0.00000000	      0.00000000	      0.00000000	   -211.47954291
      0.13000000	      0.00000000	     -0.00000000	      0.00000000	      0.00000000	      0.00000000	      0.00000000	      0.00000000	      0.00000000	      0.00000000	      5.59631109	    -10.32716179	   -728.54156494	   -290.14605328	  -1013.64637125	      0.00000000	      0.00000000	     -0.00000000	  -1819.75543318	     -9.10177367	     -4.71633021	    -35.77664948	   -167.04210085	   -896.92638832	      0.00000000	      0.00000000	     -0.00000000	    -62.97148383	    -34.71729520	     16.03895300	     76.10911560	    603.27841385	   -562.80155506	      0.00000000	      0.00000000	     -0.00000000	   -111.16486185
      0.14000000	      0.00000000	     -0.00000000	      0.00000000	      0.00000000	      0.00000000	      0.00000000	      0.00000000	      0.00000000	      0.00000000	      5.97710419	    -11.48579216	   -728.96337891	   -290.19530892	  -1013.30683153	      0.00000000	      0.00000000	     -0.00000000	  -1642.46518487	     -9.46830029	     -4.84586681	    -36.19634628	   -161.84918548	   -902.15971817	      0.00000000	      0.00000000	      0.00000000	    285.42568667	    -34.78717284	     15.83465880	     75.50247192	    605.14077367	   -564.59681492	      0.00000000	     -0.00000000	     -0.00000000	     41.14040817
